<?xml version="1.0" standalone="no"?>
<!DOCTYPE svg PUBLIC "-//W3C//DTD SVG 1.1//EN" "http://www.w3.org/Graphics/SVG/1.1/DTD/svg11.dtd" >
<svg xmlns="http://www.w3.org/2000/svg">
<metadata>Generated by IcoMoon</metadata>
<defs>
<font id="icomoon" horiz-adv-x="1024">
<font-face units-per-em="1024" ascent="960" descent="-64" />
<missing-glyph horiz-adv-x="1024" />
<glyph unicode="&#x20;" horiz-adv-x="512" d="" />
<glyph unicode="&#xe900;" d="M512 959.659c282.795 0 512-229.205 512-512s-229.205-512-512-512c-282.795 0-512 229.205-512 512s229.205 512 512 512z" />
<glyph unicode="&#xe901;" d="M401.749 528.213h-100.523v-301.909h100.523v301.909zM408.235 621.397c-0.341 29.696-21.675 52.224-56.149 52.224-34.133 0-56.661-22.528-56.661-52.224 0-28.843 21.675-52.053 55.467-52.053h0.683c34.987 0 57.003 23.211 56.661 52.053zM763.392 399.36c0 92.672-49.323 135.851-115.371 135.851-54.272 0-77.995-30.208-91.136-50.859h0.683v43.861h-100.352c0 0 1.195-28.331 0-301.909v0h100.352v168.448c0 9.216 0.853 18.091 3.243 24.747 7.339 17.92 23.723 36.523 51.541 36.523 36.181 0 50.859-27.648 50.859-68.267v-161.451h100.181v173.056z" />
<glyph unicode="&#xe902;" d="M512 959.659c282.795 0 512-229.205 512-512s-229.205-512-512-512c-282.795 0-512 229.205-512 512s229.205 512 512 512z" />
<glyph unicode="&#xe903;" d="M562.347 272.384c0-53.419-50.517-71.68-95.915-71.68-48.811 0-114.517 22.528-114.517 81.067 0 63.317 74.24 79.189 124.245 79.189 5.12 0 10.069 0 15.189-0.683 31.061-21.504 70.997-45.397 70.997-87.893zM525.824 534.869c0-37.035-14.336-67.243-56.149-67.243-54.101 0-84.651 72.533-84.651 118.784 0 36.011 19.456 71.339 59.392 71.339 56.491 0 81.408-76.459 81.408-122.88zM485.888 679.595c-19.115 0-38.4-2.048-57.003-5.973-55.467-12.288-100.181-61.611-100.181-119.467 0-61.269 51.2-104.789 110.251-104.789 6.997 0 13.995 0.512 21.333 1.536-3.072-9.557-6.656-16.213-6.656-26.283 0-17.067 9.387-32.256 19.456-45.397-54.613-1.536-139.264-15.531-166.4-70.315-6.315-12.8-11.264-26.795-11.264-41.131 0-70.656 82.261-95.061 139.264-95.061 45.056 0 93.013 9.728 128 39.936 25.941 22.528 42.667 50.859 42.667 85.845 0 85.333-91.477 100.864-91.477 140.117 0 40.277 68.267 46.421 68.267 127.147 0 34.133-15.189 70.997-45.397 89.771h41.131l41.131 24.064h-133.12zM802.475 601.6h-77.995v77.995h-39.083v-77.995h-77.995v-38.912h77.995v-77.995h39.083v77.995h77.995v38.912z" />
<glyph unicode="&#xe904;" d="M512 959.659c282.795 0 512-229.205 512-512s-229.205-512-512-512c-282.795 0-512 229.205-512 512s229.205 512 512 512z" />
<glyph unicode="&#xe905;" d="M754.859 594.432c-17.579-7.68-36.864-13.141-56.661-15.36 20.48 12.288 36.011 31.403 43.349 54.272-18.944-11.264-40.277-19.456-62.464-23.723-17.92 19.115-43.52 31.061-71.851 31.061-54.613 0-98.475-44.203-98.475-98.475 0-7.509 0.853-15.189 2.389-22.528-81.579 4.267-154.453 43.349-202.923 103.083-8.533-14.677-13.312-31.403-13.312-49.664 0-34.133 17.237-64.341 43.861-82.091-16.213 0.683-31.403 5.291-44.544 12.629 0-0.341 0-1.024 0-1.365 0-47.787 33.792-87.381 78.848-96.427-8.192-2.219-17.067-3.413-25.771-3.413-6.485 0-12.629 0.512-18.603 1.536 12.459-39.083 48.64-67.413 91.989-68.267-33.792-26.453-76.117-41.984-122.197-41.984-8.192 0-15.872 0.171-23.723 1.195 43.52-28.16 95.403-44.203 151.040-44.203 181.077 0 280.064 149.845 280.064 279.893 0 4.267 0 8.533-0.341 12.8 19.285 14.165 36.011 31.403 49.323 51.029z" />
<glyph unicode="&#xe906;" d="M512 959.659c282.795 0 512-229.205 512-512s-229.205-512-512-512c-282.795 0-512 229.205-512 512s229.205 512 512 512z" />
<glyph unicode="&#xe907;" d="M550.571 520.704v43.349c0 22.528 2.048 34.816 34.304 34.816h43.349v86.528h-69.12c-83.285 0-112.469-42.155-112.469-112.469v-52.224h-51.883v-86.528h51.883v-251.051h103.936v251.051h69.12l9.045 86.528h-78.165z" />
<glyph unicode="&#xe908;" glyph-name="uniE908" d="M0 448c0-282.214 229.581-512 512-512s512 229.786 512 512c0 282.419-229.581 512-512 512s-512-229.581-512-512zM40.96 448c0 259.686 211.354 471.040 471.040 471.040s471.040-211.354 471.040-471.040c0-259.686-211.354-471.040-471.040-471.040s-471.040 211.354-471.040 471.040z" />
<glyph unicode="&#xe909;" glyph-name="Rectangle-1" d="M512 716.581l517.266-517.266h-1034.533l517.266 517.266z" />
<glyph unicode="&#xe90a;" d="M506.715 952.403c273.837 0 495.484-221.646 495.484-495.484 0-273.507-221.646-495.484-495.484-495.484-273.507 0-495.484 221.977-495.484 495.484 0 273.837 221.977 495.484 495.484 495.484z" />
<glyph unicode="&#xe90b;" d="M400.351 534.875h-97.445v-292.005h97.445v292.005zM406.297 625.053c-0.33 28.738-20.81 50.539-54.173 50.539-33.032 0-54.834-21.801-54.834-50.539 0-27.747 20.81-50.209 53.512-50.209h0.661c34.023 0 55.164 22.462 54.834 50.209zM750.163 410.343c0 89.517-47.897 131.468-111.649 131.468-52.521 0-75.644-29.399-88.196-49.218h0.661v42.281h-97.115c0 0 1.321-27.417 0-292.005v0h97.115v162.849c0 8.919 0.661 17.507 2.973 24.114 7.267 17.177 23.123 35.345 49.879 35.345 35.345 0 49.218-27.086 49.218-66.065v-156.243h97.115v167.474z" />
<glyph unicode="&#xe90c;" d="M506.715 952.403c273.837 0 495.484-221.646 495.484-495.484 0-273.507-221.646-495.484-495.484-495.484-273.507 0-495.484 221.977-495.484 495.484 0 273.837 221.977 495.484 495.484 495.484z" />
<glyph unicode="&#xe90d;" d="M555.603 287.133c0-51.53-48.888-69.037-92.821-69.037-47.236 0-110.988 21.801-110.988 78.286 0 61.44 72.010 76.635 120.237 76.635 5.285 0 9.91 0 14.865-0.661 30.059-20.81 68.707-43.933 68.707-85.223zM520.258 541.481c0-36.005-13.874-65.074-54.173-65.074-52.521 0-82.25 70.028-82.25 114.952 0 34.684 19.159 69.037 57.476 69.037 54.834 0 78.947-73.992 78.947-118.916zM481.61 681.538c-18.498 0-37.326-1.982-55.164-5.946-53.512-11.892-97.115-59.458-97.115-115.613 0-59.128 49.548-101.409 106.694-101.409 6.937 0 13.543 0.661 20.81 1.321-2.973-8.919-6.606-15.525-6.606-25.105 0-16.516 9.249-31.381 18.828-43.933-52.521-1.652-134.772-15.195-160.867-68.046-6.276-12.552-10.901-26.095-10.901-39.969 0-68.377 79.608-91.83 134.772-91.83 43.603 0 89.848 9.249 123.871 38.317 25.105 22.132 41.29 49.548 41.29 83.241 0 82.581-88.526 97.775-88.526 135.763 0 38.978 66.065 44.594 66.065 122.88 0 33.032-14.865 68.707-43.933 86.875h39.639l39.969 23.453h-128.826zM787.819 605.894h-75.314v75.644h-37.657v-75.644h-75.644v-37.657h75.644v-75.314h37.657v75.314h75.314v37.657z" />
<glyph unicode="&#xe90e;" d="M506.715 952.403c273.837 0 495.484-221.646 495.484-495.484 0-273.507-221.646-495.484-495.484-495.484-273.507 0-495.484 221.977-495.484 495.484 0 273.837 221.977 495.484 495.484 495.484z" />
<glyph unicode="&#xe90f;" d="M741.905 598.957c-17.177-7.267-35.675-12.552-54.834-14.865 19.819 11.892 34.684 30.39 41.951 52.521-18.498-10.901-38.978-18.828-60.449-22.792-17.507 18.498-42.281 30.059-69.698 30.059-52.852 0-95.133-42.942-95.133-95.463 0-7.267 0.991-14.534 2.312-21.801-78.947 4.294-149.636 41.951-196.542 99.757-8.258-14.204-12.883-30.39-12.883-48.227 0-33.032 16.846-62.101 42.612-79.277-15.855 0.661-30.39 4.955-43.272 12.222 0-0.33 0-0.991 0-1.321 0-46.245 32.702-84.563 76.635-93.481-8.258-1.982-16.516-2.973-25.105-2.973-6.276 0-12.222 0.33-18.168 1.321 12.222-37.657 47.236-65.074 89.187-66.065-32.702-25.765-73.662-40.63-118.255-40.63-7.928 0-15.525 0.33-23.123 0.991 42.281-27.086 92.49-42.612 146.333-42.612 175.071 0 270.865 145.012 270.865 270.865 0 4.294 0 8.258-0.33 12.552 18.828 13.543 35.014 30.39 47.897 49.218z" />
<glyph unicode="&#xe910;" d="M506.715 952.403c273.837 0 495.484-221.646 495.484-495.484 0-273.507-221.646-495.484-495.484-495.484-273.507 0-495.484 221.977-495.484 495.484 0 273.837 221.977 495.484 495.484 495.484z" />
<glyph unicode="&#xe911;" d="M544.041 527.608v41.951c0 21.801 1.982 33.693 33.363 33.693h41.951v83.572h-67.055c-80.599 0-108.676-40.63-108.676-108.676v-50.539h-50.209v-83.572h50.209v-243.117h100.418v243.117h67.055l8.919 83.572h-75.974z" />
<glyph unicode="&#xe912;" glyph-name="Ellipse-1" d="M512 928.843c265.553 0 480.843-215.29 480.843-480.843s-215.29-480.843-480.843-480.843c-265.553 0-480.843 215.29-480.843 480.843s215.29 480.843 480.843 480.843z" />
<glyph unicode="&#xe913;" d="M512 960c282.761 0 512-229.239 512-512s-229.239-512-512-512c-282.761 0-512 229.239-512 512s229.239 512 512 512z" />
<glyph unicode="&#xe914;" d="M477.116 888.934c-37.274 0-31.539-16.725-51.61-19.593s4.028 8.055-56.115-3.413c-60.211-11.469-81.442-89.088-84.309-117.828s-3.618-109.568-1.707-152.713c5.734-25.805-14.336-25.805-14.336-25.805-36.045 2.321-19.797-110.387-19.797-110.387 5.12-27.785-1.911-41.643 51.473-63.147 25.463-72.704 91.887-111.138 91.887-111.138s0.341-44.851 1.365-78.029c-5.461 2.731 18.569-84.787-147.319-109.363s-197.632-78.438-228.898-108.407c-31.266-30.037-30.106-175.445-30.106-175.445l1070.626-0.614c0 0-7.987 146.022-39.253 176.060-31.266 29.969-65.331 83.831-231.219 108.407-161.246 23.415-134.758 109.705-135.919 114.893 0.341 13.039 2.048 68.54 2.048 68.54s56.32 44.578 81.783 117.282c40.004 25.327 55.228 28.877 61.85 58.027 0 0 11.81 113.869-26.010 113.323 0 0-17.886-5.803-12.151 20.070s3.823 106.701 0.956 135.441c-2.867 28.74 1.434 110.865-58.778 122.402-41.028 7.646-46.421 0.068-66.492 2.935s-43.964 55.023-81.169 55.023l-76.8-16.521z" />
<glyph unicode="&#xe915;" d="M512 960c282.795 0 512-229.205 512-512s-229.205-512-512-512c-282.795 0-512 229.205-512 512s229.205 512 512 512z" />
<glyph unicode="&#xe916;" d="M706.133 614.4c0-17.664-14.336-32-32-32s-32 14.336-32 32c0 17.664 14.336 32 32 32s32-14.336 32-32zM780.8 710.4c0 5.973-5.376 10.667-11.349 10.667-115.968 0-179.627-26.624-262.997-109.653-19.029-19.371-38.656-41.387-58.624-65.024l-126.379-6.656c-3.328-0.341-6.656-2.304-8.619-5.291l-74.667-128c-2.389-4.011-1.707-9.387 1.621-13.056l21.333-21.333c2.048-1.963 5.035-2.987 7.68-2.987 1.024 0 1.963 0 2.987 0.341l91.989 28.331 93.696-93.696-28.331-91.989c-1.024-3.669 0-7.68 2.645-10.667l21.333-21.333c2.304-1.963 5.035-2.987 7.68-2.987 1.963 0 3.669 0.341 5.291 1.365l128 74.667c3.072 1.963 5.035 5.291 5.376 8.619l6.656 126.379c23.637 19.968 45.653 39.68 65.024 58.624 79.019 79.36 109.653 153.003 109.653 263.68z" />
<glyph unicode="&#xe917;" d="M512 960c282.795 0 512-229.205 512-512s-229.205-512-512-512c-282.795 0-512 229.205-512 512s229.205 512 512 512z" />
<glyph unicode="&#xe918;" d="M492.8 447.488c0-47.019-38.4-85.333-85.333-85.333-47.019 0-85.333 38.315-85.333 85.333s38.315 85.333 85.333 85.333c46.933 0 85.333-38.315 85.333-85.333zM748.8 276.821c0-23.381-19.029-42.667-42.667-42.667-23.381 0-42.667 19.029-42.667 42.667 0 23.296 19.285 42.667 42.667 42.667 23.296 0 42.667-19.371 42.667-42.667zM748.8 618.155c0-23.381-19.029-42.667-42.667-42.667-23.381 0-42.667 19.029-42.667 42.667 0 23.296 19.285 42.667 42.667 42.667 23.296 0 42.667-19.371 42.667-42.667zM620.8 477.781c0 4.693-3.328 9.045-8.021 9.984l-50.688 7.68c-2.987 9.387-6.997 18.347-11.349 27.392 9.387 12.971 19.371 25.003 29.013 37.973 1.365 1.963 2.389 4.011 2.389 6.315 0 9.387-39.339 45.312-48.043 53.333-1.963 1.707-4.352 2.645-6.997 2.645-2.304 0-4.693-0.597-6.656-2.304l-39.339-29.696c-8.021 4.011-16.299 7.68-25.003 10.411l-7.68 50.944c-0.683 4.693-5.291 8.363-9.984 8.363h-62.037c-4.608 0-8.619-3.328-9.984-8.021-4.352-16.299-5.973-34.645-7.68-51.285-8.96-3.072-17.323-6.4-25.6-10.667l-38.4 29.952c-1.963 1.365-4.267 2.304-6.997 2.304-9.643 0-46.933-40.277-53.675-49.323-1.621-1.963-2.304-4.267-2.304-6.656 0-2.304 1.024-4.608 2.304-6.656 10.667-12.629 20.736-25.003 30.037-38.315-4.352-8.363-8.021-16.64-10.667-25.344l-51.627-8.021c-4.352-0.683-7.68-5.632-7.68-9.984v-61.696c0-4.608 3.328-8.96 7.936-9.643l50.688-8.021c2.987-9.301 6.997-18.347 11.691-27.307-9.643-12.971-19.712-25.344-29.355-37.973-1.28-2.048-2.304-4.011-2.304-6.4 0-9.643 39.339-45.312 47.957-53.248 2.048-1.707 4.352-2.731 6.997-2.731 2.389 0 5.035 0.683 6.656 2.389l39.339 29.611c8.021-4.011 16.384-7.68 25.003-10.325l7.68-50.944c0.683-4.693 5.376-8.363 9.984-8.363h62.037c4.693 0 8.704 3.328 9.984 8.021 4.352 16.299 5.973 34.645 7.68 51.627 8.96 2.645 17.323 5.973 25.685 10.325l38.315-29.952c1.963-1.365 4.352-2.389 6.997-2.389 9.643 0 47.019 40.704 53.675 49.664 1.621 1.707 2.304 4.011 2.304 6.315 0 2.731-0.939 4.693-2.304 6.741-10.667 12.629-20.651 25.003-30.037 38.315 4.352 8.277 8.021 16.64 10.667 25.344l51.712 7.936c4.352 0.683 7.68 5.717 7.68 10.069v61.611zM834.133 300.117c0 5.035-43.008 9.728-49.664 10.325-2.731 6.059-6.059 12.032-10.069 17.323 3.072 6.741 17.067 40.021 17.067 46.080 0 0.597-0.341 1.621-1.365 2.304-4.011 2.304-39.68 23.296-41.301 23.296l-2.048-0.597c-11.349-11.349-21.333-24.405-30.635-37.376-3.328 0.341-6.656 0.683-9.984 0.683s-6.656-0.341-9.984-0.683c-3.413 5.035-28.416 37.973-32.683 37.973-1.707 0-37.376-21.333-41.387-23.296-0.939-0.683-1.28-1.707-1.28-2.304 0-5.717 13.995-39.339 16.981-46.080-4.011-5.291-7.339-11.264-9.984-17.323-6.656-0.597-49.664-5.291-49.664-10.325v-46.677c0-4.949 43.008-9.643 49.664-10.325 2.645-6.315 5.973-11.947 9.984-17.323-2.987-6.656-16.981-40.277-16.981-45.995 0-0.683 0.341-1.621 1.28-2.304 4.011-2.389 39.68-23.723 41.387-23.723 4.267 0 29.269 33.365 32.683 38.4 3.328-0.341 6.656-0.683 9.984-0.683s6.656 0.341 9.984 0.683c3.328-5.035 28.331-38.4 32.683-38.4 1.621 0 37.291 21.333 41.301 23.723 1.024 0.683 1.365 1.28 1.365 2.304 0 5.973-13.995 39.339-17.067 45.995 4.011 5.376 7.339 11.008 10.069 17.323 6.656 0.683 49.664 5.376 49.664 10.325v46.677zM834.133 641.451c0 5.035-43.008 9.728-49.664 10.325-2.731 6.059-6.059 12.032-10.069 17.323 3.072 6.741 17.067 40.021 17.067 46.080 0 0.597-0.341 1.621-1.365 2.304-4.011 2.304-39.68 23.296-41.301 23.296l-2.048-0.597c-11.349-11.349-21.333-24.405-30.635-37.376-3.328 0.341-6.656 0.683-9.984 0.683s-6.656-0.341-9.984-0.683c-3.413 5.035-28.416 37.973-32.683 37.973-1.707 0-37.376-21.333-41.387-23.296-0.939-0.683-1.28-1.707-1.28-2.304 0-5.717 13.995-39.339 16.981-46.080-4.011-5.291-7.339-11.264-9.984-17.323-6.656-0.597-49.664-5.291-49.664-10.325v-46.677c0-4.949 43.008-9.643 49.664-10.325 2.645-6.315 5.973-11.947 9.984-17.323-2.987-6.656-16.981-40.277-16.981-45.995 0-0.683 0.341-1.621 1.28-2.304 4.011-2.389 39.68-23.723 41.387-23.723 4.267 0 29.269 33.365 32.683 38.4 3.328-0.341 6.656-0.683 9.984-0.683s6.656 0.341 9.984 0.683c3.328-5.035 28.331-38.4 32.683-38.4 1.621 0 37.291 21.333 41.301 23.723 1.024 0.683 1.365 1.28 1.365 2.304 0 5.973-13.995 39.339-17.067 45.995 4.011 5.376 7.339 11.008 10.069 17.323 6.656 0.683 49.664 5.376 49.664 10.325v46.677z" />
<glyph unicode="&#xe919;" d="M512 960c282.795 0 512-229.205 512-512s-229.205-512-512-512c-282.795 0-512 229.205-512 512s229.205 512 512 512z" />
<glyph unicode="&#xe91a;" d="M626.176 528.725l-35.669 35.669 97.707 97.707 35.669-35.669-97.707-97.707zM775.253 626.432c0 5.632-2.048 11.008-6.059 15.019l-65.963 65.963c-4.011 4.011-9.387 5.973-15.019 5.973s-11.008-1.963-15.019-5.973l-428.629-428.629c-4.011-4.011-6.059-9.387-6.059-15.019 0-5.717 2.048-11.008 6.059-15.019l65.963-65.963c4.011-4.011 9.387-6.059 15.019-6.059s11.008 2.048 15.019 6.059l428.629 428.629c4.011 4.011 6.059 9.301 6.059 15.019zM324.864 689.749l-9.984 32.683-9.984-32.683-32.683-9.984 32.683-9.984 9.984-32.683 9.984 32.683 32.683 9.984-32.683 9.984zM441.515 635.733l-19.968 65.365-19.968-65.365-65.365-19.968 65.365-20.053 19.968-65.28 19.968 65.28 65.365 20.053-65.365 19.968zM751.531 476.416l-9.984 32.683-9.984-32.683-32.683-9.984 32.683-9.984 9.984-32.683 9.984 32.683 32.683 9.984-32.683 9.984zM538.197 689.749l-9.984 32.683-9.984-32.683-32.683-9.984 32.683-9.984 9.984-32.683 9.984 32.683 32.683 9.984-32.683 9.984z" />
<glyph unicode="&#xe91b;" glyph-name="countur" d="M512 923.429c262.583 0 475.429-212.846 475.429-475.429s-212.846-475.429-475.429-475.429c-262.583 0-475.429 212.846-475.429 475.429s212.846 475.429 475.429 475.429z" />
<glyph unicode="&#xe91c;" d="M512 960c282.795 0 512-229.205 512-512s-229.205-512-512-512c-282.795 0-512 229.205-512 512s229.205 512 512 512z" />
<glyph unicode="&#xe91d;" d="M596.139 566.272c0 42.325-49.92 61.013-85.333 61.013-6.485 0-12.203-5.717-12.203-12.203s5.717-12.203 12.203-12.203c20.224 0 60.928-10.325 60.928-36.608 0-6.485 5.717-12.203 12.203-12.203s12.203 5.717 12.203 12.203zM657.067 566.272c0-24.405-9.899-49.92-25.856-68.523-7.253-8.448-15.616-16.384-23.296-25.173-27.051-32.427-49.835-70.485-53.675-113.579h-86.869c-3.84 43.093-26.709 81.152-53.76 113.579-7.595 8.789-15.957 16.725-23.211 25.173-15.957 18.603-25.941 44.117-25.941 68.523 0 76.203 77.397 121.941 146.347 121.941s146.261-45.739 146.261-121.941zM705.877 566.272c0 103.68-98.645 170.667-195.072 170.667s-195.072-66.987-195.072-170.667c0-39.253 12.971-73.131 39.253-102.059 26.283-29.013 60.928-69.717 64-110.507-11.093-6.485-17.92-18.688-17.92-31.232 0-9.131 3.413-17.92 9.557-24.405-6.144-6.485-9.557-15.275-9.557-24.405 0-12.544 6.485-23.979 17.152-30.805-3.072-5.376-4.949-11.861-4.949-17.92 0-24.747 19.456-36.608 41.557-36.608 9.899-22.101 32-36.523 55.979-36.523s46.080 14.421 55.979 36.523c22.101 0 41.557 11.861 41.557 36.608 0 6.059-1.877 12.544-4.949 17.92 10.667 6.827 17.152 18.261 17.152 30.805 0 9.131-3.413 17.92-9.557 24.405 6.144 6.485 9.557 15.275 9.557 24.405 0 12.544-6.912 24.747-17.92 31.232 3.072 40.789 37.717 81.493 64 110.507 26.283 28.928 39.253 62.805 39.253 102.059z" />
<glyph unicode="&#xe91e;" glyph-name="arrow-right" d="M808.229 450.56c0 8.229-4.023 17.371-10.24 23.589l-475.429 475.429c-6.034 6.034-15.36 10.24-23.406 10.24-8.229 0-17.371-4.206-23.589-10.24l-51.017-51.017c-6.034-6.217-10.057-15.36-10.057-23.406 0-8.229 4.023-17.371 10.057-23.589l401.006-401.006-401.006-401.006c-6.034-6.034-10.057-15.36-10.057-23.406 0-9.143 4.023-17.371 10.057-23.406l51.017-51.017c6.217-6.217 15.36-10.24 23.589-10.24 8.046 0 17.371 4.023 23.406 10.24l475.429 475.429c6.217 6.034 10.24 15.36 10.24 23.406z" />
<glyph unicode="&#xe91f;" glyph-name="arrow-left" d="M215.771 450.56c0 8.229 4.023 17.371 10.24 23.589l475.429 475.429c6.034 6.034 15.36 10.24 23.406 10.24 8.229 0 17.371-4.206 23.589-10.24l51.017-51.017c6.034-6.217 10.057-15.36 10.057-23.406 0-8.229-4.023-17.371-10.057-23.589l-401.006-401.006 401.006-401.006c6.034-6.034 10.057-15.36 10.057-23.406 0-9.143-4.023-17.371-10.057-23.406l-51.017-51.017c-6.217-6.217-15.36-10.24-23.589-10.24-8.046 0-17.371 4.023-23.406 10.24l-475.429 475.429c-6.217 6.034-10.24 15.36-10.24 23.406z" />
</font>
</defs>
</svg>
